<svg width="143" height="32" viewBox="0 0 143 32" fill="none" xmlns="http://www.w3.org/2000/svg">
<g clip-path="url(#clip0_1_12)">
<circle cx="17" cy="16" r="16" fill="#3A7BEC"/>
<path opacity="0.5" fill-rule="evenodd" clip-rule="evenodd" d="M22.1662 12.8585C23.2816 12.8585 24.1857 11.9558 24.1857 10.8422C24.1857 9.72866 23.2816 8.82594 22.1662 8.82594C21.0509 8.82594 20.1468 9.72866 20.1468 10.8422C20.1468 11.9558 21.0509 12.8585 22.1662 12.8585Z" fill="white"/>
<path opacity="0.7" fill-rule="evenodd" clip-rule="evenodd" d="M22.1662 18.1099C23.2816 18.1099 24.1857 17.1652 24.1857 15.9998C24.1857 14.8345 23.2816 13.8898 22.1662 13.8898C21.0509 13.8898 20.1468 14.8345 20.1468 15.9998C20.1468 17.1652 21.0509 18.1099 22.1662 18.1099Z" fill="white"/>
<path fill-rule="evenodd" clip-rule="evenodd" d="M22.1662 23.174C23.2816 23.174 24.1857 22.2713 24.1857 21.1577C24.1857 20.0442 23.2816 19.1415 22.1662 19.1415C21.0509 19.1415 20.1468 20.0442 20.1468 21.1577C20.1468 22.2713 21.0509 23.174 22.1662 23.174Z" fill="white"/>
<path opacity="0.6" fill-rule="evenodd" clip-rule="evenodd" d="M17.0002 18.1099C18.1674 18.1099 19.1136 17.1652 19.1136 15.9998C19.1136 14.8345 18.1674 13.8898 17.0002 13.8898C15.833 13.8898 14.8868 14.8345 14.8868 15.9998C14.8868 17.1652 15.833 18.1099 17.0002 18.1099Z" fill="white"/>
<path opacity="0.9" fill-rule="evenodd" clip-rule="evenodd" d="M17.0002 23.174C18.1674 23.174 19.1136 22.2713 19.1136 21.1577C19.1136 20.0442 18.1674 19.1415 17.0002 19.1415C15.833 19.1415 14.8868 20.0442 14.8868 21.1577C14.8868 22.2713 15.833 23.174 17.0002 23.174Z" fill="white"/>
<path opacity="0.8" fill-rule="evenodd" clip-rule="evenodd" d="M11.8339 23.174C12.9492 23.174 13.8533 22.2713 13.8533 21.1577C13.8533 20.0442 12.9492 19.1415 11.8339 19.1415C10.7186 19.1415 9.81442 20.0442 9.81442 21.1577C9.81442 22.2713 10.7186 23.174 11.8339 23.174Z" fill="white"/>
<path d="M50.24 13.94C50.24 14.5267 50.0533 15.0267 49.68 15.44C49.32 15.8533 48.78 16.12 48.06 16.24V16.32C48.82 16.4133 49.4267 16.6733 49.88 17.1C50.3467 17.5267 50.58 18.0733 50.58 18.74C50.58 19.2067 50.4867 19.64 50.3 20.04C50.1267 20.44 49.8467 20.7867 49.46 21.08C49.0733 21.3733 48.5733 21.6 47.96 21.76C47.36 21.92 46.6267 22 45.76 22H40.56V11.08H45.76C46.6133 11.08 47.3733 11.1733 48.04 11.36C48.72 11.5333 49.2533 11.8267 49.64 12.24C50.04 12.6533 50.24 13.22 50.24 13.94ZM47.5 18.58C47.5 18.1533 47.3333 17.8467 47 17.66C46.6667 17.46 46.1667 17.36 45.5 17.36H43.54V19.94H45.56C46.12 19.94 46.58 19.84 46.94 19.64C47.3133 19.4267 47.5 19.0733 47.5 18.58ZM47.22 14.18C47.22 13.8333 47.0867 13.58 46.82 13.42C46.5533 13.26 46.16 13.18 45.64 13.18H43.54V15.34H45.3C45.9267 15.34 46.4 15.2533 46.72 15.08C47.0533 14.8933 47.22 14.5933 47.22 14.18ZM56.1181 11.08V15.28H60.2781V11.08H63.2581V22H60.2781V17.5H56.1181V22H53.1381V11.08H56.1181ZM70.8803 10.88C71.8936 10.88 72.7603 11.0733 73.4803 11.46C74.2136 11.8467 74.7803 12.4067 75.1803 13.14C75.5803 13.8733 75.7803 14.7733 75.7803 15.84V17.28H68.7403C68.767 18.12 69.0136 18.78 69.4803 19.26C69.9603 19.74 70.6203 19.98 71.4603 19.98C72.167 19.98 72.807 19.9133 73.3803 19.78C73.9536 19.6333 74.547 19.4133 75.1603 19.12V21.42C74.627 21.6867 74.0603 21.88 73.4603 22C72.8736 22.1333 72.1603 22.2 71.3203 22.2C70.227 22.2 69.2603 22 68.4203 21.6C67.5803 21.1867 66.9203 20.5667 66.4403 19.74C65.9603 18.9133 65.7203 17.8733 65.7203 16.62C65.7203 15.34 65.9336 14.28 66.3603 13.44C66.8003 12.5867 67.407 11.9467 68.1803 11.52C68.9536 11.0933 69.8536 10.88 70.8803 10.88ZM70.9003 13C70.327 13 69.847 13.1867 69.4603 13.56C69.087 13.9333 68.867 14.5133 68.8003 15.3H72.9803C72.9803 14.86 72.9003 14.4667 72.7403 14.12C72.5936 13.7733 72.367 13.5 72.0603 13.3C71.7536 13.1 71.367 13 70.9003 13ZM94.4567 11.08V22H78.1967V11.08H81.1767V19.76H84.8367V11.08H87.8167V19.76H91.4767V11.08H94.4567ZM106.612 13.32H103.032V22H100.052V13.32H96.4717V11.08H106.612V13.32ZM113.106 10.86C114.573 10.86 115.693 11.18 116.466 11.82C117.253 12.4467 117.646 13.4133 117.646 14.72V22H115.566L114.986 20.52H114.906C114.6 20.9067 114.28 21.2267 113.946 21.48C113.626 21.7333 113.253 21.9133 112.826 22.02C112.413 22.14 111.9 22.2 111.286 22.2C110.646 22.2 110.066 22.08 109.546 21.84C109.04 21.5867 108.64 21.2067 108.346 20.7C108.053 20.18 107.906 19.5267 107.906 18.74C107.906 17.58 108.313 16.7267 109.126 16.18C109.94 15.62 111.16 15.3133 112.786 15.26L114.686 15.2V14.72C114.686 14.1467 114.533 13.7267 114.226 13.46C113.933 13.1933 113.52 13.06 112.986 13.06C112.453 13.06 111.933 13.14 111.426 13.3C110.92 13.4467 110.413 13.6333 109.906 13.86L108.926 11.84C109.513 11.5333 110.16 11.2933 110.866 11.12C111.586 10.9467 112.333 10.86 113.106 10.86ZM113.526 16.98C112.566 17.0067 111.9 17.18 111.526 17.5C111.153 17.82 110.966 18.24 110.966 18.76C110.966 19.2133 111.1 19.54 111.366 19.74C111.633 19.9267 111.98 20.02 112.406 20.02C113.046 20.02 113.586 19.8333 114.026 19.46C114.466 19.0733 114.686 18.5333 114.686 17.84V16.94L113.526 16.98ZM129.737 13.32H126.157V22H123.177V13.32H119.597V11.08H129.737V13.32ZM136.231 10.86C137.698 10.86 138.818 11.18 139.591 11.82C140.378 12.4467 140.771 13.4133 140.771 14.72V22H138.691L138.111 20.52H138.031C137.725 20.9067 137.405 21.2267 137.071 21.48C136.751 21.7333 136.378 21.9133 135.951 22.02C135.538 22.14 135.025 22.2 134.411 22.2C133.771 22.2 133.191 22.08 132.671 21.84C132.165 21.5867 131.765 21.2067 131.471 20.7C131.178 20.18 131.031 19.5267 131.031 18.74C131.031 17.58 131.438 16.7267 132.251 16.18C133.065 15.62 134.285 15.3133 135.911 15.26L137.811 15.2V14.72C137.811 14.1467 137.658 13.7267 137.351 13.46C137.058 13.1933 136.645 13.06 136.111 13.06C135.578 13.06 135.058 13.14 134.551 13.3C134.045 13.4467 133.538 13.6333 133.031 13.86L132.051 11.84C132.638 11.5333 133.285 11.2933 133.991 11.12C134.711 10.9467 135.458 10.86 136.231 10.86ZM136.651 16.98C135.691 17.0067 135.025 17.18 134.651 17.5C134.278 17.82 134.091 18.24 134.091 18.76C134.091 19.2133 134.225 19.54 134.491 19.74C134.758 19.9267 135.105 20.02 135.531 20.02C136.171 20.02 136.711 19.8333 137.151 19.46C137.591 19.0733 137.811 18.5333 137.811 17.84V16.94L136.651 16.98Z" fill="#3A7BEC"/>
</g>
<defs>
<clipPath id="clip0_1_12">
<rect width="143" height="32" fill="white"/>
</clipPath>
</defs>
</svg>
