<svg width="35" height="32" viewBox="0 0 35 32" fill="none" xmlns="http://www.w3.org/2000/svg">
<circle cx="17" cy="16" r="16" fill="#3A7BEC"/>
<path opacity="0.5" fill-rule="evenodd" clip-rule="evenodd" d="M22.1662 12.8585C23.2816 12.8585 24.1857 11.9558 24.1857 10.8422C24.1857 9.72866 23.2816 8.82594 22.1662 8.82594C21.0509 8.82594 20.1468 9.72866 20.1468 10.8422C20.1468 11.9558 21.0509 12.8585 22.1662 12.8585Z" fill="white"/>
<path opacity="0.7" fill-rule="evenodd" clip-rule="evenodd" d="M22.1662 18.1099C23.2816 18.1099 24.1857 17.1652 24.1857 15.9998C24.1857 14.8345 23.2816 13.8898 22.1662 13.8898C21.0509 13.8898 20.1468 14.8345 20.1468 15.9998C20.1468 17.1652 21.0509 18.1099 22.1662 18.1099Z" fill="white"/>
<path fill-rule="evenodd" clip-rule="evenodd" d="M22.1662 23.174C23.2816 23.174 24.1857 22.2713 24.1857 21.1577C24.1857 20.0442 23.2816 19.1415 22.1662 19.1415C21.0509 19.1415 20.1468 20.0442 20.1468 21.1577C20.1468 22.2713 21.0509 23.174 22.1662 23.174Z" fill="white"/>
<path opacity="0.6" fill-rule="evenodd" clip-rule="evenodd" d="M17.0002 18.1099C18.1674 18.1099 19.1136 17.1652 19.1136 15.9998C19.1136 14.8345 18.1674 13.8898 17.0002 13.8898C15.833 13.8898 14.8868 14.8345 14.8868 15.9998C14.8868 17.1652 15.833 18.1099 17.0002 18.1099Z" fill="white"/>
<path opacity="0.9" fill-rule="evenodd" clip-rule="evenodd" d="M17.0002 23.174C18.1674 23.174 19.1136 22.2713 19.1136 21.1577C19.1136 20.0442 18.1674 19.1415 17.0002 19.1415C15.833 19.1415 14.8868 20.0442 14.8868 21.1577C14.8868 22.2713 15.833 23.174 17.0002 23.174Z" fill="white"/>
<path opacity="0.8" fill-rule="evenodd" clip-rule="evenodd" d="M11.8339 23.174C12.9492 23.174 13.8533 22.2713 13.8533 21.1577C13.8533 20.0442 12.9492 19.1415 11.8339 19.1415C10.7186 19.1415 9.81442 20.0442 9.81442 21.1577C9.81442 22.2713 10.7186 23.174 11.8339 23.174Z" fill="white"/>
</svg>
