<svg width="16" height="16" viewBox="0 0 16 16" fill="#fff" xmlns="http://www.w3.org/2000/svg">
<path d="M8.00119 3.42722e-07C9.06126 3.42722e-07 9.39435 0.780964 9.67382 1.56071C9.7912 1.89182 12.5459 9.64027 12.6288 9.87285C12.6508 9.93773 12.6359 10.0442 12.5388 10.0828C12.4411 10.1207 11.0098 10.6924 10.9305 10.723C10.8513 10.7542 10.7625 10.7089 10.7339 10.6275C10.7041 10.5473 10.11 8.85808 10.0433 8.66957H5.96031C5.89596 8.85808 5.29472 10.551 5.26791 10.6275C5.2405 10.7052 5.15529 10.7579 5.07067 10.723C4.98606 10.6887 3.5494 10.1171 3.46359 10.0828C3.38136 10.0497 3.34382 9.95364 3.37242 9.87285C3.47372 9.58274 6.18675 1.95853 6.32499 1.56071C6.59433 0.792593 6.93874 3.42722e-07 8.00119 3.42722e-07ZM3.15433 13.8646C3.06853 13.8646 3 13.938 3 14.0274V15.8384C3 15.9278 3.06853 16 3.15433 16H12.8439C12.9315 16 13 15.9278 13 15.8384V14.0274C13 13.938 12.9315 13.8646 12.8439 13.8646H3.15433ZM7.99166 2.53018L6.61161 6.78693H9.39435L8.00953 2.53018H7.99166Z"/>
</svg>
