<svg width="16" height="16" viewBox="0 0 16 16" fill="none" xmlns="http://www.w3.org/2000/svg">
<g clip-path="url(#clip0_1_9)">
<path d="M3.39245 15.2401C3.39219 15.0438 3.46894 14.8545 3.60752 14.7098L4.0633 14.2743C4.28017 14.0641 4.51323 13.8393 4.85653 13.5123C5.24212 13.1444 5.76539 12.6469 6.55727 11.8935L6.55952 11.8913L7.33115 11.156L7.3469 11.1414C8.62831 9.92143 10.4514 8.18329 13.1285 5.63099L7.24971 0L3.92022 3.19026C2.92632 4.14226 3.0613 4.76558 3.0613 6.04496V14.7977C3.06129 15.043 3.13971 15.2825 3.28602 15.4838C3.43233 15.6852 3.63951 15.8388 3.87973 15.9242C3.73619 15.8702 3.61295 15.776 3.52605 15.654C3.43914 15.532 3.39259 15.3878 3.39245 15.2401Z" fill="#7700FF"/>
<path d="M3.87971 15.9242C3.88961 15.9281 3.89951 15.9324 3.90985 15.9358C3.9202 15.9393 3.9292 15.9414 3.9427 15.9445C4.06259 15.9804 4.18737 15.9991 4.31299 16H10.841L6.55995 11.8905L6.5577 11.8927C5.76582 12.6461 5.24255 13.1419 4.85696 13.5115C4.51456 13.8384 4.2806 14.0633 4.06373 14.2735L3.60795 14.709C3.46937 14.8537 3.39262 15.0429 3.39288 15.2393C3.39281 15.387 3.43921 15.5314 3.52604 15.6536C3.61287 15.7757 3.73611 15.8701 3.87971 15.9242Z" fill="#FF4F12"/>
</g>
<defs>
<clipPath id="clip0_1_9">
<rect width="16" height="16" fill="white"/>
</clipPath>
</defs>
</svg>
