<svg width="16" height="16" viewBox="0 0 16 16" fill="none" xmlns="http://www.w3.org/2000/svg">
<g clip-path="url(#clip0_1_27)">
<path d="M14.3306 3.13684C14.7106 3.63478 15.0323 4.17574 15.2892 4.74888L8.00196 10.193L4.95642 8.2582V5.93052L8.00196 7.86534L14.3306 3.13684Z" fill="#21A038"/>
<path d="M1.8482 8.09388C1.8482 7.98943 1.85071 7.88568 1.85574 7.78252L0.0100519 7.69086C0.00376981 7.82455 2.23042e-06 7.95954 2.23042e-06 8.09577C-0.000783058 9.16019 0.205802 10.2142 0.607913 11.1975C1.01002 12.1808 1.59974 13.074 2.34323 13.8258L3.65242 12.4996C3.08011 11.9219 2.62609 11.2353 2.31646 10.4792C2.00683 9.72313 1.84769 8.91247 1.8482 8.09388Z" fill="url(#paint0_linear_1_27)"/>
<path d="M8.00027 1.8592C8.10328 1.8592 8.20564 1.86302 8.30742 1.86811L8.39977 -0.00304816C8.26746 -0.00941481 8.13426 -0.0125977 8.00027 -0.0125977C6.94948 -0.0138964 5.90885 0.195167 4.93805 0.602588C3.96725 1.01001 3.08542 1.60777 2.3432 2.36153L3.65239 3.68834C4.22242 3.10813 4.9 2.64784 5.64616 2.33393C6.39233 2.02002 7.19233 1.85868 8.00027 1.8592Z" fill="url(#paint1_linear_1_27)"/>
<path d="M8.00025 14.3288C7.89724 14.3288 7.79482 14.3288 7.69245 14.3205L7.6001 16.191C7.73285 16.1978 7.86625 16.2012 8.00025 16.2012C9.05059 16.2023 10.0907 15.9931 11.061 15.5856C12.0313 15.1781 12.9125 14.5802 13.6542 13.8265L12.3475 12.5003C11.7774 13.0802 11.0999 13.5402 10.3539 13.854C9.60783 14.1678 8.80798 14.3292 8.00025 14.3288Z" fill="url(#paint2_linear_1_27)"/>
<path d="M11.468 2.94708L13.0235 1.78516C11.6018 0.618449 9.82712 -0.0166664 7.99774 -0.0134153V1.85902C9.23651 1.85746 10.4465 2.23686 11.468 2.94708Z" fill="url(#paint3_linear_1_27)"/>
<path d="M16 8.09389C16.001 7.60679 15.959 7.12054 15.8744 6.64102L14.1524 7.92708C14.1524 7.9825 14.1524 8.03788 14.1524 8.09389C14.1529 8.96503 13.9727 9.82655 13.6236 10.6226C13.2745 11.4186 12.7642 12.1314 12.1258 12.7148L13.3678 14.106C14.1977 13.3466 14.8609 12.4191 15.3143 11.3834C15.7678 10.3477 16.0014 9.22697 16 8.09389Z" fill="#21A038"/>
<path d="M8.00035 14.3288C7.14072 14.3291 6.2906 14.1464 5.50502 13.7926C4.71948 13.4388 4.016 12.9217 3.44016 12.2749L2.06815 13.533C2.81726 14.3742 3.73247 15.0464 4.75443 15.506C5.77638 15.9657 6.88224 16.2025 8.00035 16.2012V14.3288Z" fill="url(#paint4_linear_1_27)"/>
<path d="M3.87481 3.47296L2.63347 2.08185C1.80333 2.84099 1.13991 3.76849 0.686233 4.8042C0.232561 5.8399 -0.00123687 6.96069 4.92087e-06 8.09387H1.8482C1.84782 7.22278 2.02803 6.36126 2.37715 5.56522C2.72627 4.76921 3.23651 4.05639 3.87481 3.47296Z" fill="url(#paint5_linear_1_27)"/>
</g>
<defs>
<linearGradient id="paint0_linear_1_27" x1="2.71702" y1="13.5921" x2="0.649222" y2="7.69393" gradientUnits="userSpaceOnUse">
<stop offset="0.14" stop-color="#F1E813"/>
<stop offset="0.3" stop-color="#E6E418"/>
<stop offset="0.58" stop-color="#C9DA26"/>
<stop offset="0.89" stop-color="#A2CC39"/>
</linearGradient>
<linearGradient id="paint1_linear_1_27" x1="2.8709" y1="2.6926" x2="8.0893" y2="0.730341" gradientUnits="userSpaceOnUse">
<stop offset="0.06" stop-color="#0FA7DF"/>
<stop offset="0.54" stop-color="#0098F8"/>
<stop offset="0.92" stop-color="#0290EA"/>
</linearGradient>
<linearGradient id="paint2_linear_1_27" x1="7.47825" y1="15.0711" x2="13.3671" y2="13.7585" gradientUnits="userSpaceOnUse">
<stop offset="0.12" stop-color="#A2CC39"/>
<stop offset="0.28" stop-color="#86C239"/>
<stop offset="0.87" stop-color="#219F38"/>
</linearGradient>
<linearGradient id="paint3_linear_1_27" x1="7.61331" y1="0.6137" x2="12.6531" y2="2.1483" gradientUnits="userSpaceOnUse">
<stop offset="0.06" stop-color="#0290EA"/>
<stop offset="0.79" stop-color="#0C89CA"/>
</linearGradient>
<linearGradient id="paint4_linear_1_27" x1="2.53176" y1="13.305" x2="8.02251" y2="15.3299" gradientUnits="userSpaceOnUse">
<stop offset="0.13" stop-color="#F1E813"/>
<stop offset="0.3" stop-color="#EAE616"/>
<stop offset="0.53" stop-color="#D8DF1F"/>
<stop offset="0.8" stop-color="#BAD52D"/>
<stop offset="0.98" stop-color="#A2CC39"/>
</linearGradient>
<linearGradient id="paint5_linear_1_27" x1="0.688523" y1="8.32051" x2="2.93706" y2="2.54893" gradientUnits="userSpaceOnUse">
<stop offset="0.07" stop-color="#A2CC39"/>
<stop offset="0.26" stop-color="#81C45E"/>
<stop offset="0.92" stop-color="#0FA7DF"/>
</linearGradient>
<clipPath id="clip0_1_27">
<rect width="16" height="16" fill="white"/>
</clipPath>
</defs>
</svg>
