<svg width="16" height="16" viewBox="0 0 16 16" fill="none" xmlns="http://www.w3.org/2000/svg">
<path d="M15.456 7.5488L15.6592 6.89731L14.9868 6.91841C14.9299 6.91841 14.517 6.90667 14.1163 6.61583C14.1462 6.61876 14.176 6.62288 14.2065 6.62288C14.6189 6.62288 15.0178 6.37422 15.1777 6.01891L15.4671 5.37681C15.1045 5.38148 14.7729 5.33573 14.7729 5.33573C14.77 5.33518 14.5088 5.30173 14.2065 4.99271C13.9897 4.77107 13.7215 4.6538 13.4309 4.6538C13.3038 4.6538 13.1902 4.67665 13.0923 4.70773C13.1075 4.65554 13.1222 4.60278 13.1304 4.54825C13.2229 3.9472 12.8363 3.48865 12.8363 3.48922L12.3308 2.86238L12.0174 3.59887C12.0162 3.60123 11.9371 3.77361 11.7954 3.85806C11.7526 3.64169 11.6478 3.39833 11.4234 3.16555C11.0005 2.72692 10.4856 2.66184 10.2161 2.66184C10.0914 2.66184 10.0023 2.67531 9.98062 2.67884L9.37024 2.79904C9.4054 2.66241 9.48037 2.42493 9.61745 2.21091L9.95429 1.68551L9.10662 1.78226L8.83658 1.20817L8.31406 1.47791L7.83079 1L7.34871 1.47791L6.8244 1.20817L6.55494 1.78226L5.7079 1.68551L6.04531 2.21091C6.18239 2.42493 6.25736 2.66184 6.29192 2.79847L5.70969 2.68354L5.68974 2.68001C5.66044 2.67531 5.57201 2.66184 5.44664 2.66184C5.17721 2.66184 4.66229 2.7275 4.24049 3.16555C4.01555 3.39775 3.91071 3.64169 3.86737 3.85806C3.72678 3.77479 3.64827 3.60475 3.64827 3.60475L3.33432 2.86413L2.82054 3.49507C2.75789 3.57659 2.44802 4.00759 2.53235 4.54941C2.54115 4.60336 2.55523 4.65615 2.57045 4.70834C2.4732 4.67726 2.35955 4.65436 2.23244 4.65436C1.94191 4.65436 1.6736 4.77165 1.45628 4.99329C1.15516 5.30118 0.895082 5.33573 0.897442 5.33573C0.897442 5.33573 0.622687 5.38502 0.197407 5.37739L0.485046 6.01949C0.644954 6.37541 1.04448 6.62346 1.45628 6.62346C1.48731 6.62346 1.51718 6.61937 1.54766 6.61641C1.14814 6.90728 0.735186 6.91902 0.685386 6.91957L0 6.89731L0.20737 7.54822C0.311641 7.88361 0.660187 8.43952 1.32798 8.49933C1.25534 8.80426 1.09426 9.14554 0.740453 9.2927L0.230239 9.5032L0.508479 9.98814C0.665453 10.2497 1.03394 10.5558 1.55879 10.5558C1.67242 10.5552 1.78195 10.544 1.88743 10.5218C1.91436 10.6414 1.94832 10.761 1.98816 10.8795C2.14457 11.3451 2.00983 11.6699 2.0081 11.6734L1.75619 12.2018L2.31854 12.3501C2.32557 12.3525 2.49545 12.3988 2.70807 12.3988C2.80474 12.3988 2.89672 12.3888 2.98344 12.3683C3.04902 12.3531 3.11171 12.3325 3.17203 12.3079C3.24467 12.4387 3.33314 12.5577 3.43625 12.6644C3.79648 13.0344 4.30672 13.2221 4.95342 13.2221H4.95575L5.41737 13.2162L4.46371 13.6126L5.18774 13.9627C5.45073 14.0911 5.76299 14.243 6.08045 14.3591L5.99026 14.6065L6.2398 14.7203C6.26205 14.7303 6.74181 14.9455 7.53966 14.9912C7.53966 14.9912 7.73237 15 7.83842 15C7.94444 15 8.13482 14.9906 8.13482 14.9906C8.92738 14.9437 9.40362 14.7308 9.42589 14.7203L9.67602 14.606L9.58464 14.3579C9.91152 14.2383 10.2349 14.0806 10.4867 13.9574L11.1973 13.612L10.2466 13.215L10.7099 13.2209C11.3572 13.2209 11.868 13.0333 12.2277 12.6627C12.3302 12.5565 12.4187 12.4375 12.4919 12.3067C12.5522 12.3314 12.6155 12.3519 12.6811 12.3671C12.7672 12.3876 12.8592 12.3976 12.9558 12.3976C13.165 12.3976 13.3366 12.3513 13.3413 12.3501L13.906 12.2006L13.6599 11.6822C13.6541 11.6687 13.5194 11.3445 13.6758 10.8783C13.7156 10.7592 13.749 10.6396 13.7759 10.5206C13.882 10.5429 13.9927 10.5546 14.1069 10.5546C14.7753 10.5546 15.0957 10.0837 15.1578 9.9817L15.4331 9.50204L14.9229 9.29212C14.5685 9.14493 14.408 8.80307 14.336 8.49872C14.9944 8.44245 15.3482 7.88654 15.456 7.5488ZM6.33648 3.02304L6.32942 3.02482L6.33527 3.01719L6.33648 3.02304Z" fill="white"/>
<path d="M7.83145 2.99432C7.29132 2.99489 6.88654 3.17199 6.7981 3.38016L7.83145 3.78828L8.86478 3.38016C8.77691 3.17199 8.37213 2.99489 7.83145 2.99432Z" fill="white"/>
<path d="M7.84194 13.7985H7.84079H7.83199H7.82206H7.82145C7.494 13.8009 7.04352 13.7334 6.82617 13.6701L6.56494 14.3778C6.73716 14.4394 7.3206 14.5567 7.83199 14.5567C8.34219 14.5567 8.92624 14.4388 9.09788 14.3778L8.83723 13.6701C8.61928 13.734 8.1694 13.8009 7.84194 13.7985Z" fill="white"/>
<path d="M9.81905 13.0948C9.62455 13.2051 9.1905 13.3705 8.93802 13.4473L9.15007 14.0319C9.54081 13.9252 9.86299 13.8003 10.1295 13.6666L9.68957 13.52L9.81905 13.0948Z" fill="white"/>
<path d="M5.84453 13.0948L5.97459 13.52L5.53409 13.6666C5.80001 13.8003 6.12395 13.9252 6.51291 14.0319L6.72498 13.4473C6.47368 13.3705 6.03902 13.2045 5.84453 13.0948Z" fill="white"/>
<path d="M7.83145 2.3176C8.23856 2.3176 8.63808 2.41495 8.94504 2.5862C8.97316 2.49177 9.01239 2.37742 9.06574 2.25782L8.94973 2.27187L8.82788 2.28477L8.77634 2.17395L8.62113 1.84557L8.33817 1.99336L8.22803 2.04965L8.14017 1.96285L7.83263 1.65793L7.5257 1.96285L7.4378 2.04965L7.32767 1.99336L7.04301 1.84557L6.88953 2.17395L6.8368 2.28477L6.71495 2.27187L6.59897 2.25782C6.6523 2.37802 6.69095 2.49177 6.71964 2.5862C7.02718 2.41495 7.42551 2.3176 7.83145 2.3176Z" fill="white"/>
<path d="M14.0473 6.11278C14.1 6.13095 14.1539 6.13916 14.2072 6.13916C14.4374 6.13916 14.66 5.9902 14.7367 5.81956C14.7367 5.81956 14.3144 5.79376 13.8604 5.33228C13.7157 5.18274 13.5628 5.13818 13.4316 5.13818C13.2277 5.13818 13.0748 5.24606 13.0748 5.24606C13.6231 5.53812 13.735 6.00722 14.0473 6.11278Z" fill="white"/>
<path d="M1.45588 6.13916C1.50918 6.13916 1.56308 6.13095 1.61462 6.11278C1.92803 6.00722 2.0405 5.53812 2.58878 5.24606C2.58878 5.24606 2.4353 5.13818 2.23261 5.13818C2.10083 5.13818 1.94792 5.18274 1.80267 5.33228C1.34925 5.79376 0.92691 5.81956 0.92691 5.81956C1.00246 5.9902 1.22564 6.13916 1.45588 6.13916Z" fill="white"/>
<path d="M14.1961 8.01908C14.2055 8.01964 14.2137 8.01964 14.2236 8.01964C14.7983 8.01964 14.9934 7.40337 14.9934 7.40337H14.9822C14.8768 7.40337 14.0221 7.37873 13.4182 6.60997C13.0204 6.10451 12.6947 5.66002 12.0509 5.48529L11.9877 5.47413L11.9736 5.40966C11.9561 5.31111 12.0234 5.21907 12.1763 5.1194C13.0643 4.53711 12.4616 3.79473 12.4616 3.79473C12.4616 3.79473 12.208 4.38873 11.6403 4.38873C11.6268 4.38873 11.6122 4.38815 11.5981 4.38815C11.5337 4.38465 11.4716 4.3823 11.4089 4.36882L11.3041 4.34829C11.3041 4.34829 11.4658 3.90792 11.0756 3.50329C10.7815 3.19779 10.4236 3.14618 10.2169 3.14618C10.1126 3.14618 10.0464 3.15969 10.0464 3.15969C10.2426 3.41652 10.3844 3.84224 10.1577 4.10491C9.96204 4.33069 9.48404 4.34183 9.48404 4.67841C9.48404 4.8209 9.617 4.98746 9.85601 5.13697C10.5748 5.59024 11.2883 6.19131 11.5847 6.99698C11.9555 8.00207 11.5378 8.66878 10.9415 9.05111C10.9415 9.05111 11.1284 9.22349 11.3995 9.24521C11.4546 9.25048 11.5085 9.25283 11.5589 9.25283C12.1312 9.25283 12.427 8.98426 12.427 8.98426C12.427 8.98426 12.3784 9.35543 12.0802 9.70025C11.8055 10.0186 11.4447 10.2057 10.8946 10.2139C10.8946 10.2139 10.877 10.4696 11.1207 10.6906C11.2765 10.8302 11.6368 10.876 11.6368 10.876C11.6368 10.876 10.9626 11.0126 10.8882 12.0094C10.8477 12.5495 10.7101 12.7371 10.7101 12.7371H10.7224C12.287 12.7371 12.2466 11.3937 12.2466 11.3937C12.2466 11.3937 12.3555 11.7913 12.792 11.8951C12.8447 11.9092 12.9009 11.9144 12.9548 11.9144C13.0954 11.9144 13.2173 11.8816 13.2173 11.8816C13.2173 11.8816 12.9888 11.399 13.2155 10.7241C13.4035 10.1641 13.373 9.7489 13.373 9.7489C13.373 9.7489 13.584 10.0679 14.1065 10.0708H14.1118C14.547 10.0708 14.7368 9.74069 14.7368 9.74069C13.6935 9.30736 13.7966 7.90825 13.7966 7.90825C13.7966 7.90825 13.9319 8.00911 14.1961 8.01908ZM13.8821 9.48032C13.458 9.27101 13.1897 8.7151 13.1247 8.51457C13.0544 9.61696 12.5166 10.3822 11.8881 11.1187C11.5618 11.5005 11.4482 11.8716 11.4482 11.8716C11.4482 11.8716 11.5109 11.4512 11.7932 11.1087C12.3796 10.4033 12.9366 9.52549 12.9782 8.51046C13.0069 7.80209 12.8248 7.22745 12.5406 6.75423C12.6994 7.24737 12.6772 7.85137 12.1377 8.41487C12.1377 8.41487 13.2114 7.12659 11.71 5.80605C11.109 5.30349 10.4517 4.99331 10.1132 4.77339C11.3363 5.17274 11.9332 4.73295 11.9332 4.73295C11.5425 5.07188 11.037 5.06602 10.7236 5.01735C10.8085 5.05901 10.8969 5.10238 10.9924 5.1534C12.0234 5.71398 12.9501 6.63636 13.1083 7.91411V7.90414C13.3485 9.15841 13.8821 9.48032 13.8821 9.48032Z" fill="white"/>
<path d="M4.02622 10.876C4.02622 10.876 4.38646 10.8308 4.5423 10.6906C4.78537 10.4696 4.76842 10.2139 4.76842 10.2139C4.21775 10.2063 3.85752 10.0186 3.581 9.70083C3.28521 9.35604 3.236 8.98484 3.236 8.98484C3.236 8.98484 3.53179 9.25341 4.10353 9.25341C4.1551 9.25341 4.2084 9.25106 4.26345 9.24579C4.53467 9.2241 4.72211 9.05169 4.72211 9.05169C4.1258 8.66938 3.70755 8.00207 4.07777 6.99698C4.37477 6.19189 5.08767 5.59024 5.80641 5.13697C6.04542 4.98746 6.17838 4.82148 6.17838 4.67841C6.17838 4.34183 5.70099 4.33069 5.50534 4.10491C5.27862 3.84224 5.42096 3.41592 5.61661 3.15969C5.61661 3.15969 5.55159 3.14618 5.44672 3.14618C5.24054 3.14618 4.88261 3.19779 4.58857 3.50329C4.19726 3.90792 4.35952 4.34829 4.35952 4.34829L4.25468 4.36882C4.19199 4.3823 4.12931 4.38465 4.06545 4.38815C4.05083 4.38815 4.03791 4.38873 4.02386 4.38873C3.45507 4.38873 3.20258 3.79533 3.20258 3.79533C3.20258 3.79533 2.5998 4.53766 3.4873 5.11995C3.64018 5.21965 3.70694 5.31172 3.68939 5.41024L3.67532 5.47474L3.61088 5.48587C2.96829 5.6606 2.64202 6.10512 2.24426 6.61058C1.64147 7.37815 0.787986 7.40337 0.681381 7.40337H0.669647C0.669647 7.40337 0.864711 8.01964 1.43938 8.01964C1.44873 8.01964 1.45694 8.01964 1.46689 8.01908C1.73112 8.00966 1.86701 7.90825 1.86701 7.90825C1.86701 7.90825 1.96892 9.30678 0.926818 9.74069C0.926818 9.74069 1.11662 10.0708 1.55185 10.0708H1.55712C2.08021 10.0679 2.29053 9.7489 2.29053 9.7489C2.29053 9.7489 2.26006 10.1641 2.4475 10.7241C2.67422 11.399 2.44695 11.8816 2.44695 11.8816C2.44695 11.8816 2.56877 11.9144 2.70879 11.9144C2.76324 11.9144 2.81892 11.9092 2.87104 11.8951C3.30685 11.7913 3.41642 11.3937 3.41642 11.3937C3.41642 11.3937 3.37656 12.7371 4.94121 12.7371H4.95235C4.95235 12.7371 4.81527 12.5495 4.77544 12.0094C4.70044 11.0126 4.02622 10.876 4.02622 10.876ZM3.77492 11.1187C3.14635 10.3822 2.60921 9.61696 2.5383 8.51457C2.47331 8.71449 2.20615 9.27101 1.78209 9.48032C1.78209 9.48032 2.31514 9.15841 2.5547 7.90414V7.91411C2.71348 6.63696 3.6396 5.71398 4.67117 5.1534C4.76548 5.10177 4.85507 5.0584 4.93945 5.01735C4.62604 5.06602 4.12053 5.07188 3.72982 4.73295C3.72982 4.73295 4.32674 5.17274 5.54923 4.77339C5.21067 4.99331 4.55401 5.30349 3.95298 5.80605C2.45104 7.12659 3.52537 8.41487 3.52537 8.41487C2.98527 7.85076 2.9636 7.24737 3.12235 6.75423C2.83766 7.22801 2.65603 7.80209 2.68536 8.51046C2.72634 9.52549 3.28342 10.4033 3.86866 11.1087C4.15156 11.4506 4.21542 11.8716 4.21542 11.8716C4.21542 11.8716 4.10059 11.5005 3.77492 11.1187Z" fill="white"/>
<path d="M6.67458 5.96436C6.70034 5.9919 6.72552 6.02182 6.74955 6.05174C6.75542 6.05879 6.76069 6.06522 6.7665 6.07343C6.78878 6.10335 6.81166 6.135 6.8333 6.16727C6.83799 6.17371 6.84268 6.18133 6.84795 6.18896C6.87431 6.22882 6.89892 6.26987 6.92352 6.31208C7.14907 6.70207 7.51048 6.93484 7.83091 6.93545C8.15192 6.93484 8.51218 6.70207 8.73888 6.31208C8.76406 6.26871 8.78924 6.2265 8.8156 6.18719C8.81972 6.18133 8.8238 6.17606 8.82732 6.17017C8.84959 6.13677 8.87302 6.10393 8.89762 6.07227C8.90289 6.06522 8.90758 6.05937 8.91224 6.05351C8.93746 6.02243 8.96321 5.9919 8.98957 5.96378C8.99429 5.95909 8.99778 5.955 9.00189 5.95146C9.11669 5.83361 9.2538 5.74389 9.43304 5.69405L9.35338 5.64772H9.34866L9.03119 5.46299L8.70492 5.27594L7.83324 5.7509L7.83091 5.74916L7.82916 5.7509L6.95691 5.27594L6.63121 5.46241L6.31314 5.64714H6.30963L6.22876 5.69344C6.4086 5.74331 6.5451 5.83184 6.66051 5.94972C6.66578 5.95442 6.66929 5.95969 6.67458 5.96436ZM7.47828 5.92624H7.84732H8.21575V6.17956C8.12907 6.07343 7.96036 6.09514 7.96036 6.09514V6.46046C7.96036 6.46046 7.96681 6.63988 8.02949 6.7179H7.84732H7.66454C7.72837 6.64046 7.73424 6.46046 7.73424 6.46046V6.09514C7.73424 6.09514 7.56614 6.07343 7.47828 6.17956V5.92624Z" fill="white"/>
<path d="M7.75591 5.43479V3.95184L6.81277 3.63165L7.06175 5.06893L7.75591 5.43479ZM7.55321 4.316V4.55405L7.50754 4.53294C7.50518 4.5312 7.43838 4.51592 7.32125 4.4233C7.12791 4.27318 7.12443 4.1348 7.12443 4.1348L7.55321 4.316Z" fill="white"/>
<path d="M8.60184 5.06893L8.84966 3.63165L7.90714 3.95184V5.43479L8.60184 5.06893ZM8.1098 4.316L8.53859 4.13538C8.53859 4.13538 8.53507 4.27376 8.34119 4.42387C8.2246 4.51653 8.15723 4.53175 8.1549 4.53355L8.1092 4.55465V4.316H8.1098Z" fill="white"/>
<path d="M6.42207 8.87286C6.51402 8.90628 6.62534 8.91336 6.68218 8.91336C6.68451 8.90628 6.68745 8.8975 6.69038 8.88695C6.69565 8.86993 6.70031 8.85352 6.70385 8.83476C6.71965 8.75266 6.72552 8.65942 6.72667 8.59962C6.68802 8.57555 6.63354 8.53276 6.60307 8.46884C6.56793 8.39497 6.51814 8.36096 6.44489 8.36096C6.35004 8.36096 6.2481 8.41784 6.20476 8.4448C6.17019 8.64945 6.32074 8.83534 6.42207 8.87286Z" fill="white"/>
<path d="M8.5082 8.08588C8.33304 8.27643 7.99037 8.60835 7.97336 8.62534L7.95287 8.64645L6.86975 8.62943C6.86915 8.73678 6.85159 8.82825 6.83458 8.89508C6.83168 8.90624 6.82874 8.91798 6.82581 8.92969L8.11452 9.16133C8.24869 9.06746 8.61773 8.79772 8.76065 8.6922C8.65638 8.53973 8.64645 8.35915 8.66988 8.23188C8.6019 8.1879 8.54978 8.13867 8.5082 8.08588Z" fill="white"/>
<path d="M8.655 6.78183C8.40545 7.02991 8.16586 7.12137 7.95206 7.14248C7.91341 7.14657 7.87415 7.14891 7.83432 7.14891H7.83139H7.82903C7.7892 7.14891 7.74937 7.14657 7.71072 7.14248C7.67322 7.13897 7.63399 7.13309 7.59471 7.1243C7.58066 7.18002 7.56308 7.29671 7.6135 7.40694C7.6586 7.50722 7.75055 7.58166 7.88469 7.63095L7.92979 7.64855L7.93039 7.69719C7.93039 7.71186 7.94092 8.02732 8.28478 8.1147C8.34102 8.05666 8.39198 8.00447 8.42948 7.9611C8.35918 7.79574 8.39607 7.62683 8.49801 7.54418C8.49332 7.56175 8.44882 7.97574 8.78036 8.12936L8.83481 8.1552L8.81844 8.21321C8.81317 8.23083 8.70246 8.63132 9.1037 8.78024L9.17461 8.80723L9.14296 8.87644C9.13593 8.89169 8.97837 9.25523 9.34913 9.46162H10.1534V8.82248C9.86759 8.78732 9.74632 8.55742 9.71529 8.3944C9.58227 8.37156 9.47921 8.3141 9.40891 8.22025C9.2402 7.99803 9.38548 7.79455 9.38724 7.78338C9.38663 7.78518 9.38724 8.00212 9.52077 8.13583C9.58699 8.20031 9.66548 8.25014 9.78439 8.2613L9.84296 8.26658L9.84825 8.32639C9.84943 8.33929 9.88164 8.63251 10.154 8.6788L10.1534 7.37354C10.1534 7.17121 10.2126 6.96772 10.2835 6.78009H8.655V6.78183Z" fill="white"/>
<path d="M6.49066 7.37979L6.46899 8.21129L6.5633 8.22538L6.79409 7.42789L6.67693 7.18277L6.49066 7.37979Z" fill="white"/>
<path d="M9.03524 11.1932C9.04229 11.1932 9.05049 11.1944 9.05812 11.1962C9.20161 11.2372 9.23796 11.7555 9.48984 11.8019C9.51441 11.8072 9.53727 11.8083 9.55718 11.8083C9.62982 11.8083 9.67316 11.7772 9.72004 11.7221C9.72004 11.7221 9.5935 11.5228 9.49861 11.3885C9.37265 11.2126 9.27485 10.9997 9.0405 10.9997C9.03524 10.9997 9.02821 10.9997 9.02237 11.0003C8.94504 11.0044 8.89761 11.0419 8.89761 11.0419C8.8027 10.9821 8.71423 10.9616 8.63399 10.9616C8.48696 10.9616 8.37273 11.029 8.31592 11.029H8.31356L7.78986 10.9774C7.70787 10.9698 7.64343 10.8871 7.62001 10.8549C7.61413 10.8461 7.6112 10.8408 7.6112 10.8408C7.6112 10.8267 7.6112 10.812 7.61005 10.7991C7.59246 10.3705 7.26092 10.187 7.14316 10.184C7.14316 10.184 7.15723 10.1025 7.12503 10.0715L7.00962 10.2116L6.6306 10.021L6.90063 10.3371L6.67161 10.5945C6.64291 10.6238 6.64642 10.6637 6.65814 10.6801L6.75714 10.7675L6.88247 10.6912C6.88895 10.6866 6.90009 10.6854 6.9141 10.6854C6.94867 10.6854 7.00082 10.6942 7.04767 10.6942C7.09864 10.6942 7.14316 10.683 7.14845 10.635C7.13262 10.7939 6.98559 11.0701 7.08226 11.287L7.15372 11.4506L6.69095 11.3838L6.47421 11.7503C6.40744 11.8723 6.39685 12.0042 6.46129 12.0757L6.54216 12.1772C6.54216 12.1772 6.65581 12.0564 6.68156 11.9772L6.64467 11.9368C6.61362 11.9027 6.61537 11.8723 6.63414 11.8353L6.77 11.6095L7.31655 11.7385L7.34525 11.6893C7.38217 11.6277 7.43547 11.609 7.49407 11.609C7.51807 11.609 7.54268 11.6119 7.56843 11.616C7.66979 11.6359 7.83674 11.6629 8.00369 11.6629C8.18705 11.6629 8.36862 11.6301 8.46529 11.5216C8.66326 11.8154 9.06453 11.8623 9.0329 12.0112L8.92749 12.5143C8.99719 12.5114 9.06453 12.5067 9.12839 12.4979L9.22855 11.9743C9.23969 11.9174 9.25025 11.8406 9.25025 11.8406C9.2116 11.8013 9.11786 11.718 9.06511 11.6172C8.99425 11.4811 9.0329 11.4102 8.96671 11.2331C8.96907 11.2342 8.98899 11.1932 9.03524 11.1932ZM6.99086 10.4579C6.96392 10.4573 6.94458 10.4344 6.94576 10.4074C6.94812 10.3816 6.96979 10.3611 6.99615 10.3635C7.02309 10.3647 7.0424 10.3881 7.04125 10.4139C7.03889 10.4397 7.01664 10.4597 6.99086 10.4579Z" fill="white"/>
<path d="M6.24466 11.6693C6.24466 11.6693 6.42568 11.5948 6.44208 11.5414L6.41808 11.481C6.40107 11.4418 6.40343 11.399 6.43624 11.3755L6.63189 11.24L6.95876 11.3028C6.95876 11.3028 6.89959 11.2289 6.90546 11.1298L6.59381 11.0635L6.29974 11.243C6.1738 11.3374 6.16442 11.4916 6.20601 11.5831L6.24466 11.6693Z" fill="white"/>
<path d="M8.55502 12.5219C8.61359 12.5196 8.67803 12.5184 8.74894 12.5184C8.74894 12.5184 8.91704 12.0264 8.92642 12.0106C8.83211 11.9689 8.63647 11.8651 8.56089 11.8177C8.61071 11.8921 8.73193 11.9777 8.70793 12.0434L8.55502 12.5219Z" fill="white"/>
<path d="M10.1553 9.6041H5.50827V11.3539C5.50827 12.0693 6.02552 12.5173 6.78881 12.5173C7.42674 12.5173 7.59484 12.5419 7.8321 12.7776C7.99551 12.6146 8.13086 12.5536 8.40849 12.5307L8.41497 12.5038L8.5614 12.0505C8.5532 12.0405 8.31364 11.7679 8.31364 11.7679C8.21872 11.7995 8.13906 11.8048 8.00492 11.8048C7.86724 11.8048 7.712 11.789 7.5439 11.7573C7.52689 11.7532 7.51109 11.752 7.49526 11.752C7.47477 11.752 7.47299 11.7538 7.46772 11.7638L7.43842 11.8119L7.38512 11.8998L7.28497 11.8769L6.83918 11.772L6.77828 11.8728L6.78763 11.8834L6.84211 11.9432L6.81811 12.0212C6.7853 12.1232 6.67867 12.2423 6.64647 12.2751L6.53518 12.3947L6.43382 12.2663L6.35767 12.1707C6.27743 12.081 6.25867 11.9432 6.30379 11.799C6.30258 11.8001 6.30086 11.8007 6.2991 11.8007L6.17316 11.8529L6.11632 11.7298L6.07649 11.6424C6.00794 11.4888 6.03315 11.2642 6.21766 11.1287L6.57677 10.9258L6.91829 10.9933C6.92649 10.9604 6.93878 10.8431 6.94871 10.8132C6.94229 10.8127 6.93585 10.8109 6.9294 10.8109L6.73258 10.8842L6.54278 10.7528C6.54278 10.7528 6.46841 10.6813 6.53573 10.6098L6.71969 10.3312L6.254 9.74601L6.96981 10.0404L7.01726 9.98115L7.11393 9.86565L7.22347 9.97002C7.25452 9.99991 7.27208 10.0368 7.28086 10.0738C7.47825 10.1506 7.83152 10.3775 7.86255 10.7464L7.75183 10.791V10.7939C7.77704 10.8238 7.79811 10.8361 7.80458 10.8373L8.31536 10.8877C8.32826 10.8854 8.34466 10.8795 8.36282 10.8742C8.42611 10.8525 8.52157 10.8214 8.63464 10.8214C8.72659 10.8214 8.81564 10.8426 8.90114 10.8824C8.93277 10.8707 8.97145 10.8619 9.01597 10.859L9.04058 10.8584C9.31413 10.8584 9.45002 11.063 9.55901 11.2261C9.57717 11.2542 9.5953 11.2812 9.61406 11.3076C9.70953 11.4424 9.83431 11.6401 9.83958 11.6483L9.89582 11.7362L9.82672 11.8166C9.77342 11.8781 9.69373 11.9503 9.55665 11.9503C9.52853 11.9503 9.49751 11.9473 9.4641 11.9409C9.4348 11.9356 9.40846 11.9268 9.38265 11.9163C9.37856 11.9432 9.3733 11.9755 9.36803 12.003L9.27838 12.4709C9.8144 12.339 10.1547 11.9338 10.1547 11.3545L10.1553 9.6041Z" fill="#FFDD2D"/>
<path d="M5.50833 9.46336H9.12205C8.94161 9.27692 8.94397 9.04061 8.99024 8.88696C8.93752 8.86174 8.89418 8.83127 8.85553 8.79842C8.71433 8.90279 8.28319 9.21708 8.17072 9.29568L8.14672 9.31208L6.72852 9.05525H6.6998C6.66584 9.05525 6.61605 9.05409 6.56157 9.04763C6.54635 9.11155 6.49126 9.15553 6.42801 9.15553C6.42098 9.15553 6.41278 9.15495 6.40516 9.15318C6.36826 9.14672 6.33603 9.12796 6.31436 9.09688C6.29211 9.06641 6.28333 9.03006 6.28978 8.99252L6.29505 8.96202C6.14859 8.85881 6.01387 8.62836 6.07362 8.38559L6.07946 8.35979L6.09995 8.34514C6.10289 8.3428 6.12749 8.32639 6.16384 8.30525L6.06072 8.28942C6.02207 8.28241 5.99629 8.2466 6.00216 8.20851C6.0086 8.16981 6.04492 8.14224 6.083 8.14986L6.32843 8.18859L6.3507 7.32306L6.7162 6.93603L6.94408 7.4163L6.70334 8.24898L6.92008 8.28299C6.95815 8.28884 6.98452 8.32462 6.97864 8.3639C6.9728 8.39852 6.9435 8.42252 6.90894 8.42252C6.90543 8.42252 6.90131 8.42252 6.89783 8.42197L6.72147 8.39324C6.72383 8.39852 6.72734 8.40142 6.72967 8.4073C6.74844 8.44598 6.79002 8.47416 6.81466 8.48587L7.89599 8.50289C7.94169 8.45833 8.05531 8.34688 8.1719 8.22904C7.90595 8.12818 7.80931 7.89831 7.79287 7.74584C7.64411 7.68252 7.5416 7.58752 7.48476 7.46379C7.41563 7.31074 7.44027 7.1577 7.4584 7.08322C7.3143 7.03046 7.1626 6.93429 7.00794 6.78067H5.37946C5.44916 6.9683 5.50833 7.17176 5.50833 7.37409V9.46336Z" fill="#FFDD2D"/>
<path d="M6.9967 10.3635C6.97034 10.3611 6.94807 10.3816 6.94634 10.4074C6.94455 10.4344 6.96447 10.4573 6.99144 10.4579C7.01719 10.4602 7.04004 10.4402 7.04238 10.4139C7.04238 10.3881 7.02364 10.364 6.9967 10.3635Z" fill="black"/>
<path d="M10.1488 13.5363L9.88107 13.4337L9.95486 13.1569L10.0363 12.8549C10.0363 12.8549 9.56181 13.1124 8.89344 13.3058C8.70361 13.3604 8.56012 13.385 8.56012 13.385V13.5902C8.56012 13.5902 8.20276 13.6524 7.84135 13.6524H7.83726H7.832H7.82494H7.82086C7.45942 13.6524 7.10209 13.5902 7.10209 13.5902V13.385C7.10209 13.385 6.95799 13.3604 6.7688 13.3058C6.10039 13.1124 5.62648 12.8549 5.62648 12.8549L5.70675 13.1569L5.78232 13.4337L5.51401 13.5363L5.21643 13.6477C5.55796 13.8125 6.03069 14.0529 6.46359 14.1713L6.36168 14.4505C6.36168 14.4505 6.91053 14.7009 7.82494 14.7032V14.7038H7.82788H7.832H7.83551H7.83787V14.7032C8.75343 14.7009 9.30171 14.4505 9.30171 14.4505L9.19919 14.1713C9.63212 14.0529 10.106 13.8125 10.4458 13.6477L10.1488 13.5363ZM5.53395 13.6665L5.97445 13.5199L5.84443 13.0948C6.03831 13.205 6.47355 13.3704 6.72542 13.4472L6.51277 14.0318C6.12385 13.9245 5.79991 13.7996 5.53395 13.6665ZM7.832 14.5566C7.32061 14.5566 6.73656 14.4388 6.56492 14.3778L6.82618 13.67C7.04292 13.7333 7.49398 13.8008 7.82143 13.7984H7.82204H7.832H7.84077H7.84195C8.16941 13.8008 8.61929 13.7333 8.83721 13.67L9.09786 14.3778C8.92622 14.4393 8.34277 14.5566 7.832 14.5566ZM9.15001 14.0318L8.93796 13.4472C9.19045 13.3704 9.6245 13.205 9.81896 13.0948L9.68951 13.5199L10.1294 13.6665C9.86291 13.7996 9.54072 13.9245 9.15001 14.0318Z" fill="black"/>
<path d="M7.83141 2.48888C8.3762 2.48888 8.81204 2.66949 9.05278 2.86241C9.05278 2.86241 9.12424 2.43141 9.36852 2.05085L8.92977 2.10069L8.70014 1.61223L8.25904 1.83975L7.83141 1.41638L7.40495 1.83975L6.96327 1.61223L6.73424 2.10069L6.2955 2.05085C6.53975 2.43141 6.61124 2.86241 6.61124 2.86241C6.85259 2.66949 7.28721 2.48888 7.83141 2.48888ZM6.71433 2.27193L6.83618 2.28483L6.88888 2.17398L7.04239 1.8456L7.32704 1.99279L7.43718 2.0491L7.52508 1.96231L7.83201 1.65738L8.13955 1.96231L8.22741 2.0491L8.33752 1.99279L8.62045 1.8456L8.77572 2.17398L8.82726 2.28483L8.94911 2.27193L9.06507 2.25785C9.01177 2.37805 8.97254 2.4918 8.94442 2.58622C8.63746 2.41498 8.23794 2.31766 7.83083 2.31766C7.42547 2.31766 7.02656 2.41498 6.71845 2.58622C6.68972 2.4918 6.65107 2.37748 6.59777 2.25785L6.71433 2.27193Z" fill="black"/>
<path d="M14.223 8.20782C14.9277 8.20782 15.1632 7.49009 15.1732 7.45959L15.2517 7.20688L14.9874 7.21508H14.9863C14.8931 7.21508 14.1158 7.19455 13.5646 6.49323L13.5124 6.42815C13.1522 5.96959 12.8107 5.53392 12.2003 5.33512C12.2179 5.3193 12.2431 5.29935 12.2776 5.27706C12.6015 5.06362 12.7902 4.80444 12.8376 4.50363C12.9067 4.05091 12.6185 3.69028 12.6057 3.67563L12.4094 3.43288L12.287 3.72079C12.2788 3.73897 12.0726 4.19989 11.6391 4.19989H11.6069C11.577 4.19809 11.5489 4.19693 11.5208 4.19462C11.536 3.98878 11.4985 3.67035 11.2103 3.37189C10.8641 3.01243 10.4388 2.9585 10.2162 2.9585C10.0973 2.9585 10.0182 2.97315 10.01 2.97432L9.71361 3.03296L9.89638 3.27397C10.0399 3.45986 10.17 3.80289 10.0159 3.98234C9.96669 4.03919 9.86536 4.08552 9.76811 4.13185C9.56836 4.2239 9.29596 4.35175 9.29596 4.67775C9.29596 4.88886 9.4594 5.10937 9.75583 5.297C10.6333 5.8494 11.1746 6.4258 11.4083 7.06204C11.7698 8.04072 11.2982 8.59894 10.8401 8.89274L10.6345 9.02523L10.8143 9.19059C10.8383 9.21173 11.0586 9.40582 11.3837 9.43397C11.4452 9.43806 11.5044 9.4416 11.5594 9.4416C11.768 9.4416 11.9455 9.40875 12.0896 9.36477C12.0498 9.43455 12.0011 9.50549 11.9396 9.57704C11.6778 9.88078 11.3556 10.0192 10.8922 10.0262L10.72 10.0292L10.7066 10.2021C10.7048 10.2367 10.6919 10.5575 10.9953 10.8302C11.0416 10.8724 11.0978 10.907 11.1564 10.9357C10.9508 11.121 10.7417 11.4435 10.7013 11.9965C10.6673 12.4579 10.5572 12.6286 10.556 12.6304L10.3656 12.9212L10.7095 12.9259C11.2777 12.9259 11.7129 12.7688 12.0146 12.4579C12.1927 12.2739 12.2946 12.0663 12.3549 11.8821C12.4539 11.9666 12.5817 12.0405 12.748 12.0798C12.8113 12.0944 12.8804 12.1026 12.9548 12.1026C13.1153 12.1026 13.2494 12.0686 13.2646 12.0651L13.4843 12.0064L13.3871 11.8012C13.3801 11.7848 13.1967 11.3732 13.3941 10.7856C13.4791 10.5317 13.5224 10.3042 13.5435 10.1271C13.6818 10.1992 13.8669 10.259 14.1064 10.2596C14.65 10.2596 14.8897 9.85324 14.9008 9.83622L15.008 9.64975L14.8094 9.56768C14.1615 9.2985 14.018 8.57549 13.9893 8.18379C14.0479 8.19492 14.1146 8.20547 14.1902 8.20782H14.223ZM14.7367 9.74067C14.7367 9.74067 14.5469 10.0708 14.1117 10.0708H14.1064C13.5839 10.0679 13.373 9.74884 13.373 9.74884C13.373 9.74884 13.4035 10.164 13.2149 10.724C12.9882 11.3989 13.2166 11.8815 13.2166 11.8815C13.2166 11.8815 13.0948 11.9144 12.9542 11.9144C12.9003 11.9144 12.8441 11.9091 12.7913 11.895C12.3549 11.7913 12.246 11.3937 12.246 11.3937C12.246 11.3937 12.2864 12.7371 10.7218 12.7371H10.7095C10.7095 12.7371 10.8471 12.5494 10.8881 12.0094C10.9625 11.0125 11.6368 10.8759 11.6368 10.8759C11.6368 10.8759 11.2771 10.8307 11.1213 10.6906C10.8776 10.4695 10.8946 10.2139 10.8946 10.2139C11.4452 10.2062 11.8055 10.0186 12.0802 9.70017C12.3778 9.35538 12.427 8.9842 12.427 8.9842C12.427 8.9842 12.1312 9.25278 11.5588 9.25278C11.5085 9.25278 11.4546 9.25043 11.3995 9.24515C11.1289 9.22347 10.9415 9.05106 10.9415 9.05106C11.5372 8.66872 11.9554 8.00143 11.5846 6.99634C11.2876 6.19123 10.5741 5.58961 9.85598 5.1363C9.61699 4.98683 9.484 4.82085 9.484 4.67775C9.484 4.34119 9.962 4.33064 10.1582 4.10428C10.3844 3.8416 10.2426 3.41527 10.0464 3.15904C10.0464 3.15904 10.1125 3.14553 10.2168 3.14553C10.4236 3.14553 10.7815 3.19772 11.0756 3.50264C11.4663 3.90726 11.304 4.34763 11.304 4.34763L11.4089 4.36816C11.4716 4.38164 11.5337 4.38398 11.5981 4.38691C11.6122 4.38691 11.6262 4.38752 11.6403 4.38752C12.2079 4.38752 12.4615 3.79351 12.4615 3.79351C12.4615 3.79351 13.0649 4.53645 12.1769 5.11813C12.024 5.21783 11.9566 5.3099 11.9742 5.40841L11.9882 5.47292L12.0515 5.48405C12.6953 5.65878 13.021 6.1033 13.4187 6.60876C14.0227 7.37752 14.8773 7.40213 14.9828 7.40213H14.9939C14.9939 7.40213 14.7989 8.01842 14.2242 8.01842C14.2148 8.01842 14.2066 8.01842 14.1966 8.01784C13.9324 8.00845 13.7972 7.90701 13.7972 7.90701C13.7972 7.90701 13.6934 9.3067 14.7367 9.74067Z" fill="black"/>
<path d="M12.9852 5.41259C13.2483 5.55276 13.4012 5.74039 13.5353 5.90692C13.6671 6.06935 13.7925 6.22591 13.9881 6.29099C14.0578 6.31505 14.1316 6.32619 14.2066 6.32619C14.5007 6.32619 14.7959 6.14615 14.9078 5.89694L15.0203 5.64716L14.7479 5.63072C14.735 5.63014 14.3847 5.59848 13.9946 5.19916C13.834 5.03556 13.6402 4.94934 13.431 4.94934C13.1756 4.94934 12.9864 5.07719 12.9654 5.09006L12.7146 5.26659L12.9852 5.41259ZM13.4316 5.13816C13.5628 5.13816 13.7158 5.18275 13.8604 5.33226C14.3144 5.79376 14.7367 5.81954 14.7367 5.81954C14.66 5.9896 14.4374 6.13914 14.2072 6.13914C14.1539 6.13914 14.1006 6.1309 14.0473 6.11272C13.7351 6.00717 13.6232 5.53806 13.0743 5.24606C13.0743 5.24606 13.2278 5.13816 13.4316 5.13816Z" fill="black"/>
<path d="M13.1083 7.90416V7.91353C12.9501 6.63638 12.0234 5.714 10.9924 5.15282C10.8969 5.1018 10.809 5.05843 10.7235 5.01679C11.0375 5.06544 11.543 5.07133 11.9332 4.73239C11.9332 4.73239 11.3363 5.17219 10.1132 4.77286C10.4517 4.99273 11.1096 5.30297 11.71 5.80547C13.2114 7.12604 12.137 8.41432 12.137 8.41432C12.6765 7.85079 12.6988 7.24682 12.54 6.75368C12.8242 7.22687 13.0058 7.80153 12.9776 8.5099C12.9361 9.52494 12.379 10.4028 11.7926 11.1082C11.5108 11.4506 11.4476 11.8711 11.4476 11.8711C11.4476 11.8711 11.5612 11.4999 11.8875 11.1181C12.516 10.3817 13.0532 9.6164 13.1235 8.51399C13.1885 8.71397 13.4562 9.27045 13.8809 9.4798C13.8821 9.48038 13.3484 9.15843 13.1083 7.90416Z" fill="black"/>
<path d="M5.10693 12.6298C5.10633 12.628 4.9974 12.4574 4.96226 11.9959C4.92122 11.4429 4.71268 11.1204 4.5065 10.9351C4.56625 10.907 4.6213 10.8724 4.66758 10.8296C4.97046 10.5569 4.95756 10.2361 4.95581 10.2016L4.9441 10.0286L4.7707 10.0256C4.3085 10.018 3.98574 9.87962 3.72387 9.57646C3.66298 9.50491 3.61376 9.43394 3.5739 9.36419C3.71803 9.40817 3.89436 9.44101 4.10348 9.44101C4.15971 9.44101 4.2177 9.43748 4.2792 9.43339C4.60433 9.40521 4.8246 9.21172 4.84918 9.19001L5.02902 9.02464L4.82342 8.89215C4.36358 8.59778 3.89376 8.03953 4.2546 7.06142C4.48834 6.42522 5.02902 5.84881 5.90769 5.29642C6.20409 5.10879 6.36638 4.88828 6.36638 4.67717C6.36638 4.35116 6.09456 4.22276 5.89483 4.13127C5.79758 4.08494 5.69625 4.03861 5.64701 3.98176C5.49237 3.80288 5.623 3.45928 5.76595 3.27339L5.94988 3.03238L5.6523 2.97374C5.64352 2.97257 5.56562 2.95792 5.4461 2.95792C5.22352 2.95792 4.79939 3.01185 4.4526 3.37131C4.16383 3.67038 4.12572 3.98878 4.1404 4.19403C4.11225 4.19635 4.08417 4.19751 4.05487 4.19931H4.02324C3.58858 4.19931 3.38298 3.73839 3.37478 3.72021L3.25235 3.4323L3.05432 3.67505C3.04321 3.6897 2.75383 4.05093 2.82411 4.50305C2.871 4.80386 3.05962 5.06304 3.38356 5.27647C3.4187 5.29874 3.4433 5.31871 3.46089 5.33454C2.85105 5.53333 2.51016 5.96959 2.14987 6.42814L2.09775 6.49323C1.54711 7.19455 0.768027 7.21508 0.674891 7.21508L0.409515 7.20687L0.490354 7.45959C0.499719 7.49009 0.734626 8.20782 1.43991 8.20782L1.4739 8.20663C1.54829 8.20431 1.61506 8.19434 1.67483 8.18263C1.64554 8.57372 1.50201 9.29675 0.853531 9.56649L0.655557 9.64859L0.76276 9.83503C0.773294 9.85205 1.01348 10.2584 1.55825 10.2584C1.79605 10.2578 1.98116 10.198 2.11999 10.1259C2.14109 10.303 2.18443 10.5305 2.26939 10.7844C2.46679 11.372 2.28289 11.7836 2.27584 11.8L2.17862 12.0053L2.39884 12.0639C2.41349 12.0674 2.54881 12.1014 2.70874 12.1014C2.78371 12.1014 2.85284 12.0932 2.91494 12.0786C3.08186 12.0393 3.21074 11.9654 3.30859 11.881C3.3683 12.0651 3.47085 12.2727 3.64833 12.4568C3.9506 12.7676 4.38526 12.9247 4.95345 12.9247L5.29791 12.92L5.10693 12.6298ZM4.94056 12.7371C3.37593 12.7371 3.41579 11.3937 3.41579 11.3937C3.41579 11.3937 3.3068 11.7912 2.87039 11.8951C2.81827 11.9091 2.76261 11.9144 2.70816 11.9144C2.56754 11.9144 2.4463 11.8815 2.4463 11.8815C2.4463 11.8815 2.6736 11.399 2.44687 10.724C2.25943 10.164 2.28988 9.74884 2.28988 9.74884C2.28988 9.74884 2.07959 10.0679 1.55649 10.0708H1.55123C1.11597 10.0708 0.926164 9.74064 0.926164 9.74064C1.96887 9.30731 1.86636 7.90817 1.86636 7.90817C1.86636 7.90817 1.73107 8.00906 1.46627 8.019C1.45692 8.01961 1.44811 8.01961 1.43876 8.01961C0.863512 8.01961 0.669026 7.40332 0.669026 7.40332H0.680727C0.786762 7.40332 1.64027 7.37867 2.24421 6.60992C2.64194 6.10446 2.96824 5.66055 3.61086 5.48524L3.6753 5.4741L3.68931 5.4096C3.70692 5.31109 3.64013 5.21901 3.48725 5.11934C2.59917 4.53705 3.20253 3.79468 3.20253 3.79468C3.20253 3.79468 3.45502 4.3881 4.02384 4.3881C4.03786 4.3881 4.05075 4.38752 4.0654 4.38752C4.12926 4.38398 4.19255 4.38166 4.2546 4.36815L4.35947 4.34763C4.35947 4.34763 4.19721 3.90725 4.58853 3.50266C4.88259 3.19714 5.2405 3.14556 5.44667 3.14556C5.55154 3.14556 5.61659 3.15903 5.61659 3.15903C5.42091 3.41587 5.27917 3.84159 5.50527 4.10431C5.70091 4.33006 6.17833 4.34119 6.17833 4.67778C6.17833 4.82027 6.04537 4.98679 5.80636 5.13633C5.08759 5.58963 4.37412 6.19126 4.07769 6.99634C3.7075 8.00143 4.12518 8.66814 4.72209 9.05105C4.72209 9.05105 4.53462 9.22346 4.2634 9.24515C4.20835 9.25043 4.15505 9.25275 4.10348 9.25275C3.53174 9.25275 3.23595 8.9842 3.23595 8.9842C3.23595 8.9842 3.28513 9.35537 3.58096 9.70019C3.85747 10.0186 4.2177 10.2062 4.76837 10.2139C4.76837 10.2139 4.78592 10.4695 4.54225 10.6906C4.38583 10.8301 4.02617 10.8759 4.02617 10.8759C4.02617 10.8759 4.701 11.0125 4.77479 12.0094C4.81522 12.5494 4.95169 12.7371 4.95169 12.7371H4.94056Z" fill="black"/>
<path d="M1.45575 6.3268C1.5313 6.3268 1.60512 6.31566 1.67485 6.2916C1.87164 6.22652 1.99643 6.06993 2.12824 5.90753C2.26296 5.741 2.41468 5.55334 2.6777 5.4132L2.94831 5.26775L2.69704 5.09128C2.67594 5.0778 2.48732 4.95053 2.23251 4.95053C2.02279 4.95053 1.82833 5.03617 1.66837 5.20035C1.27827 5.59909 0.928568 5.63136 0.915646 5.63194L0.64328 5.64774L0.755152 5.89813C0.867613 6.14618 1.16226 6.3268 1.45575 6.3268ZM1.80254 5.33287C1.94782 5.18336 2.1007 5.13877 2.23251 5.13877C2.43517 5.13877 2.58868 5.24665 2.58868 5.24665C2.04035 5.53928 1.92788 6.00778 1.6145 6.11336C1.56295 6.13151 1.50905 6.13975 1.45575 6.13975C1.22554 6.13975 1.00293 5.99079 0.926784 5.82015C0.926784 5.81957 1.34855 5.79377 1.80254 5.33287Z" fill="black"/>
<path d="M2.68525 8.51048C2.65592 7.80211 2.83755 7.22745 3.12221 6.75426C2.96349 7.2474 2.98516 7.85137 3.52526 8.4149C3.52526 8.4149 2.45093 7.12662 3.95287 5.80605C4.5539 5.30354 5.21114 4.99331 5.54912 4.77344C4.32663 5.17277 3.72971 4.73297 3.72971 4.73297C4.11982 5.07191 4.62536 5.06602 4.93934 5.01676C4.85442 5.0584 4.76537 5.10182 4.67103 5.15282C3.63889 5.714 2.71276 6.63641 2.55404 7.91353V7.90355C2.31443 9.15785 1.78137 9.47977 1.78137 9.47977C2.2055 9.27042 2.4726 8.71455 2.53764 8.51399C2.60849 9.6164 3.14566 10.3816 3.77421 11.1181C4.10048 11.4999 4.21531 11.871 4.21531 11.871C4.21531 11.871 4.15145 11.4506 3.86852 11.1082C3.28332 10.4039 2.72623 9.52552 2.68525 8.51048Z" fill="black"/>
<path d="M7.4783 5.9263V6.17962C7.56562 6.07346 7.73432 6.09517 7.73432 6.09517V6.46049C7.73432 6.46049 7.72845 6.63992 7.66462 6.71793H7.84734H8.02954C7.96686 6.6405 7.96042 6.46049 7.96042 6.46049V6.09517C7.96042 6.09517 8.12912 6.07346 8.21583 6.17962V5.9263H7.84734H7.4783Z" fill="black"/>
<path d="M7.32121 4.42393C7.43777 4.51658 7.50514 4.53183 7.50747 4.53357L7.55317 4.55468V4.31602L7.12436 4.13541C7.12436 4.13602 7.12847 4.27381 7.32121 4.42393Z" fill="black"/>
<path d="M8.34128 4.42393C8.5352 4.27381 8.53868 4.13541 8.53868 4.13541L8.10989 4.31602V4.55468L8.15502 4.53357C8.15796 4.53183 8.22472 4.51658 8.34128 4.42393Z" fill="black"/>
<path d="M9.11366 3.45231C9.11366 3.09053 8.505 2.76508 7.83311 2.76508H7.83254H7.83078H7.829C7.15711 2.76508 6.54851 3.09053 6.54851 3.45231L6.56198 3.54146L6.83024 5.08306L6.5608 5.23961L5.86371 5.64717H5.86604C5.86604 5.64717 5.70907 5.7275 5.63643 5.77734C5.37106 5.96207 5.31482 6.23119 5.46891 6.34264C5.50698 6.12329 5.68035 5.89345 6.0049 5.89345C6.23862 5.89345 6.4167 6.01425 6.5608 6.19545C6.5977 6.24117 6.63284 6.28984 6.66565 6.34264C6.70608 6.40888 6.74649 6.46692 6.78692 6.52322H4.99149C5.1233 6.78884 5.24863 7.07031 5.24863 7.37585V11.3539C5.24863 12.3167 5.98849 12.7765 6.78868 12.7765C7.40726 12.7765 7.49044 12.7483 7.83193 13.0884C8.17168 12.7477 8.25488 12.7765 8.87404 12.7765C9.67483 12.7765 10.4135 12.3167 10.4135 11.3539V7.37585C10.4135 7.07031 10.5389 6.78884 10.6712 6.52322H8.87525C8.91508 6.46753 8.95548 6.40888 8.99592 6.34264C9.02928 6.28984 9.06384 6.24117 9.10019 6.19545C9.24547 6.01365 9.42292 5.89345 9.65667 5.89345C9.98119 5.89345 10.154 6.12271 10.1927 6.34264C10.3467 6.23119 10.2911 5.96207 10.024 5.77734C9.95249 5.7275 9.7955 5.64717 9.7955 5.64717H9.79783L9.10076 5.23961L8.83248 5.08306L9.10076 3.54146L9.11366 3.45231ZM6.81268 3.63175L7.75581 3.95192V5.4349L7.06165 5.06842L6.81268 3.63175ZM7.00775 6.78182C7.16238 6.93603 7.31413 7.03164 7.45823 7.0844C7.43947 7.15885 7.41486 7.3125 7.48457 7.46555C7.54141 7.58867 7.64449 7.68368 7.79271 7.74702C7.80911 7.89949 7.90518 8.12875 8.17168 8.23022C8.05512 8.34807 7.94147 8.45887 7.89522 8.50404L6.81444 8.48705C6.78986 8.4747 6.74824 8.44716 6.72951 8.40787C6.72715 8.4026 6.72364 8.39967 6.72188 8.39378L6.89821 8.42252C6.90233 8.42312 6.90581 8.42312 6.90935 8.42312C6.94331 8.42312 6.97318 8.39967 6.97905 8.3645C6.98493 8.32519 6.95856 8.28942 6.92049 8.28356L6.70375 8.24955L6.94449 7.41748L6.71661 6.93721L6.35109 7.32422L6.32884 8.18975L6.08338 8.15104C6.04528 8.14342 6.00898 8.17157 6.00257 8.20969C5.9967 8.24779 6.02245 8.28356 6.06113 8.29061L6.16422 8.30643C6.12733 8.32754 6.10329 8.34395 6.10036 8.3463L6.07929 8.36097L6.07342 8.38677C6.01367 8.62951 6.149 8.85999 6.29485 8.96317L6.28956 8.9937C6.28374 9.03118 6.29192 9.06754 6.31416 9.09807C6.33526 9.12914 6.36807 9.1479 6.40439 9.15434C6.41201 9.15553 6.42021 9.15611 6.42724 9.15611C6.49049 9.15611 6.54558 9.11213 6.56138 9.04823C6.61586 9.05464 6.66565 9.05583 6.69961 9.05583H6.72833L8.14652 9.31208L8.17052 9.29625C8.2836 9.21707 8.71414 8.90278 8.8553 8.79899C8.89398 8.83242 8.93733 8.86289 8.99005 8.88814C8.94435 9.04176 8.94141 9.27807 9.12241 9.46454H5.50813V7.3764C5.50813 7.1741 5.44896 6.97064 5.37926 6.78301H7.00775V6.78182ZM8.76042 8.69225C8.61689 8.7978 8.24785 9.06754 8.11429 9.16138L6.82557 8.92977C6.82851 8.91803 6.83142 8.9069 6.83435 8.89516C6.85136 8.82833 6.86834 8.73684 6.86952 8.62951L7.95261 8.64714L7.97313 8.626C7.98953 8.60959 8.33278 8.2777 8.50794 8.08651C8.54952 8.13872 8.60167 8.18859 8.66965 8.23254C8.64619 8.35923 8.65615 8.53981 8.76042 8.69225ZM6.60296 8.46887C6.63344 8.53277 6.6885 8.57559 6.72657 8.59962C6.72542 8.65943 6.71955 8.75267 6.70375 8.83477C6.70021 8.85295 6.69552 8.86996 6.69025 8.88695C6.68732 8.8975 6.68441 8.90632 6.68205 8.91333C6.62524 8.91333 6.51334 8.90632 6.42197 8.87289C6.32064 8.83535 6.16949 8.64946 6.20463 8.44481C6.24857 8.41785 6.34991 8.36097 6.44479 8.36097C6.51804 8.36039 6.56782 8.39497 6.60296 8.46887ZM6.46882 8.21143L6.49049 7.38052L6.67678 7.18291L6.79394 7.42803L6.56313 8.22549L6.46882 8.21143ZM8.7487 12.519C8.6784 12.519 8.61341 12.5202 8.55479 12.5226L8.70827 12.0447C8.7323 11.9784 8.61102 11.8934 8.56126 11.8189C8.63681 11.8664 8.83248 11.9702 8.92679 12.0118C8.91681 12.0271 8.7487 12.519 8.7487 12.519ZM9.23021 11.976L9.13006 12.4991C9.06617 12.5079 8.99825 12.5126 8.92855 12.5155L9.03399 12.0124C9.06562 11.8629 8.66435 11.8165 8.46635 11.5228C8.36971 11.6318 8.18753 11.6641 8.00475 11.6641C7.8378 11.6641 7.67088 11.6371 7.56949 11.6172C7.54374 11.6131 7.51913 11.6101 7.49513 11.6101C7.43653 11.6101 7.38323 11.6283 7.34634 11.6905L7.31704 11.7397L6.77052 11.6107L6.63459 11.8359C6.61528 11.8723 6.6141 11.9033 6.64516 11.9373L6.68205 11.9778C6.65687 12.0575 6.54325 12.1778 6.54325 12.1778L6.4618 12.0763C6.39736 12.0042 6.4079 11.8729 6.47527 11.7509L6.69201 11.3844L7.15478 11.4512L7.08272 11.287C6.98608 11.0701 7.13311 10.7939 7.14891 10.635C7.14364 10.683 7.09973 10.6936 7.04815 10.6936C7.00133 10.6936 6.94918 10.6848 6.91462 10.6848C6.90115 10.6848 6.88941 10.686 6.88299 10.6907L6.75762 10.7669L6.65859 10.6796C6.64691 10.6625 6.64279 10.6232 6.67209 10.5939L6.90115 10.3371L6.63051 10.021L7.0095 10.2116L7.12491 10.0714C7.15654 10.1025 7.14307 10.184 7.14307 10.184C7.26138 10.187 7.59295 10.3705 7.61053 10.7986C7.61171 10.8115 7.61171 10.8261 7.61171 10.8402C7.61171 10.8402 7.61465 10.8455 7.62046 10.8543C7.64392 10.8866 7.70836 10.9692 7.79035 10.9768L8.31405 11.0285H8.31638C8.37379 11.0285 8.48802 10.961 8.63448 10.961C8.71414 10.961 8.80318 10.9815 8.89807 11.0413C8.89807 11.0413 8.94553 11.0038 9.02286 10.9997C9.02873 10.9991 9.03515 10.9991 9.04102 10.9991C9.27592 10.9991 9.37316 11.2114 9.4991 11.3879C9.59399 11.5222 9.7205 11.7216 9.7205 11.7216C9.67368 11.7772 9.63031 11.8077 9.55767 11.8077C9.53775 11.8077 9.5149 11.806 9.49029 11.8013C9.23842 11.755 9.2021 11.2366 9.05857 11.1956C9.05097 11.1932 9.04277 11.1926 9.03575 11.1926C8.98944 11.1926 8.96895 11.2337 8.96895 11.2337C9.03454 11.4102 8.9965 11.4817 9.06678 11.6178C9.11953 11.7186 9.21323 11.8019 9.25188 11.8412C9.25188 11.8423 9.24135 11.9186 9.23021 11.976ZM6.41785 11.4811L6.44186 11.5415C6.42606 11.5943 6.24446 11.6693 6.24446 11.6693L6.20523 11.5838C6.16362 11.4923 6.17242 11.338 6.29897 11.2436L6.59301 11.0642L6.90466 11.1305C6.89879 11.2296 6.95796 11.3035 6.95796 11.3035L6.63108 11.2407L6.43544 11.3762C6.40263 11.399 6.4003 11.4418 6.41785 11.4811ZM9.27943 12.4704L9.36905 12.0024C9.37374 11.9749 9.37958 11.9426 9.38369 11.9157C9.40891 11.9262 9.43581 11.935 9.46514 11.9403C9.4985 11.9467 9.52955 11.9497 9.55767 11.9497C9.69474 11.9497 9.7744 11.8775 9.8277 11.816L9.89683 11.7356L9.8406 11.6477C9.83533 11.6389 9.71115 11.4418 9.61508 11.307C9.59635 11.2806 9.57816 11.2542 9.56 11.2255C9.45107 11.0625 9.31457 10.8578 9.04102 10.8578L9.01641 10.8584C8.97131 10.8613 8.93263 10.8701 8.90158 10.8818C8.81547 10.8414 8.72703 10.8209 8.63508 10.8209C8.52201 10.8209 8.42652 10.8519 8.36326 10.8737C8.3451 10.8789 8.3287 10.8848 8.3158 10.8871L7.80442 10.8367C7.79797 10.8355 7.77688 10.8232 7.7517 10.7927V10.7904L7.86241 10.7458C7.83139 10.3769 7.47754 10.15 7.28012 10.0732C7.27137 10.0363 7.25378 9.99934 7.22273 9.96942L7.11259 9.86505L7.01595 9.98116L6.96852 10.0404L6.25266 9.74602L6.71837 10.3312L6.53444 10.6097C6.46707 10.6813 6.54146 10.7528 6.54146 10.7528L6.73123 10.8836L6.92809 10.8103C6.93511 10.8103 6.94098 10.812 6.94743 10.8127C6.93804 10.8425 6.92575 10.9598 6.91755 10.9927L6.57603 10.9252L6.21692 11.1281C6.03241 11.2636 6.00723 11.4881 6.07575 11.6418L6.11558 11.7292L6.17242 11.8523L6.29776 11.8001C6.29954 11.7995 6.3013 11.799 6.30245 11.7978C6.25735 11.942 6.27554 12.0792 6.35635 12.1695L6.4325 12.2657L6.53384 12.3941L6.64516 12.2745C6.67793 12.2417 6.78399 12.1226 6.81677 12.0206L6.84083 11.9426L6.78632 11.8828L6.77754 11.8723L6.83844 11.7714L7.28423 11.8763L7.38438 11.8992L7.43771 11.8113L7.46701 11.7632C7.47228 11.7532 7.47403 11.7514 7.49452 11.7514C7.51035 11.7514 7.52618 11.7532 7.54316 11.7568C7.71126 11.7884 7.8665 11.8042 8.00418 11.8042C8.13772 11.8042 8.21738 11.799 8.3129 11.7673C8.3129 11.7673 8.55246 12.0394 8.56066 12.0499L8.41423 12.5026L8.40775 12.5302C8.13012 12.5524 7.9948 12.6134 7.83139 12.7771C7.5941 12.5413 7.426 12.5167 6.78807 12.5167C6.02478 12.5167 5.50753 12.0687 5.50753 11.3533V9.6041H10.154L10.1552 11.3533C10.1558 11.9338 9.81542 12.3384 9.27943 12.4704ZM10.2841 6.78182C10.2131 6.96948 10.154 7.17294 10.154 7.37524L10.1546 8.68054C9.88221 8.63479 9.84998 8.34102 9.8488 8.32812L9.84353 8.26831L9.78497 8.26304C9.66663 8.25187 9.58814 8.20149 9.52192 8.13695C9.38839 8.00325 9.38778 7.78631 9.38839 7.78457C9.38663 7.79567 9.24135 7.99916 9.41006 8.2214C9.48094 8.31522 9.58342 8.37268 9.71641 8.39558C9.74747 8.55857 9.86872 8.78844 10.1546 8.82361V9.4628H9.35089C8.98009 9.25636 9.13708 8.89281 9.14468 8.87759L9.17631 8.80836L9.10545 8.78143C8.70418 8.63244 8.81432 8.23138 8.82016 8.21439L8.83657 8.15574L8.78212 8.12994C8.45052 7.97631 8.49565 7.56174 8.49973 7.54469C8.39782 7.62741 8.36093 7.79628 8.43121 7.96164C8.39313 8.00504 8.34217 8.05778 8.28653 8.11527C7.94325 8.02789 7.93272 7.71183 7.93272 7.69719L7.93212 7.64851L7.88702 7.63091C7.75288 7.58105 7.6609 7.5066 7.6158 7.40632C7.56483 7.29549 7.58299 7.17938 7.59704 7.12369C7.63629 7.13247 7.67555 7.13893 7.71305 7.14186C7.7517 7.14595 7.79153 7.1483 7.83139 7.1483H7.83372H7.83665C7.87648 7.1483 7.91571 7.14595 7.95439 7.14186C8.16819 7.12076 8.40775 7.02868 8.6573 6.78121H10.2841V6.78182ZM9.03164 5.46244L9.34913 5.64717H9.35382L9.43348 5.6935C9.25422 5.74333 9.11714 5.83306 9.00234 5.95091C8.99825 5.95445 8.99414 5.95911 8.99005 5.96323C8.96369 5.99138 8.93733 6.02188 8.91272 6.05293C8.90806 6.05881 8.90334 6.06525 8.89807 6.07171C8.87346 6.10337 8.85064 6.13564 8.82837 6.16965C8.82485 6.1755 8.82074 6.18136 8.81665 6.18664C8.79032 6.22592 8.76511 6.26816 8.7399 6.31153C8.51381 6.70149 8.15294 6.93429 7.83193 6.93487C7.51153 6.93429 7.15069 6.70149 6.92457 6.31153C6.89994 6.26935 6.87536 6.22827 6.849 6.18838C6.8437 6.18078 6.83904 6.17315 6.83435 6.16672C6.8121 6.13445 6.78986 6.10279 6.76698 6.07287C6.76114 6.06467 6.75587 6.05823 6.75 6.05119C6.72542 6.02127 6.70021 5.99138 6.675 5.96381C6.66973 5.95972 6.66625 5.95445 6.66098 5.94972C6.54558 5.83187 6.40908 5.74272 6.22923 5.6935L6.31008 5.64717H6.31359L6.63108 5.46244L6.95738 5.27542L7.829 5.75035L7.83078 5.74861L7.83311 5.75035L8.70476 5.27542L9.03164 5.46244ZM8.60167 5.06897L7.9069 5.43545V3.95192L8.84943 3.63175L8.60167 5.06897ZM7.83139 3.78891L6.79803 3.38019C6.88592 3.17202 7.29125 2.99493 7.83139 2.99435C8.37204 2.99493 8.7774 3.17202 8.86469 3.38019L7.83139 3.78891Z" fill="black"/>
</svg>
